HIERARCHY
ROOT Hips
{
	OFFSET 0.000000 97.420761 0.000000
	CHANNELS 6 Xposition Yposition Zposition Xrotation Yrotation Zrotation
	JOINT RightUpLeg
	{
		OFFSET -8.571318 0.002251 -0.000250
		CHANNELS 6 Xposition Yposition Zposition Xrotation Yrotation Zrotation
		JOINT RightLeg
		{
			OFFSET 0.000000 -44.326080 -0.000105
			CHANNELS 6 Xposition Yposition Zposition Xrotation Yrotation Zrotation
			JOINT RightFoot
			{
				OFFSET 0.000000 -43.324329 -0.000176
				CHANNELS 6 Xposition Yposition Zposition Xrotation Yrotation Zrotation
				JOINT RightToeBase
				{
					OFFSET 0.000000 -7.938133 18.050686
					CHANNELS 6 Xposition Yposition Zposition Xrotation Yrotation Zrotation
					End Site
					{
						OFFSET 0.000000 0.000000 19.719055
					}
				}
			}
		}
	}
	JOINT LeftUpLeg
	{
		OFFSET 8.571318 -0.000084 0.000009
		CHANNELS 6 Xposition Yposition Zposition Xrotation Yrotation Zrotation
		JOINT LeftLeg
		{
			OFFSET 0.000000 -44.326080 -0.000105
			CHANNELS 6 Xposition Yposition Zposition Xrotation Yrotation Zrotation
			JOINT LeftFoot
			{
				OFFSET 0.000000 -43.324329 -0.000176
				CHANNELS 6 Xposition Yposition Zposition Xrotation Yrotation Zrotation
				JOINT LeftToeBase
				{
					OFFSET 0.000000 -7.938133 18.050686
					CHANNELS 6 Xposition Yposition Zposition Xrotation Yrotation Zrotation
					End Site
					{
						OFFSET 0.000000 0.000000 19.719055
					}
				}
			}
		}
	}
	JOINT Spine
	{
		OFFSET 0.000000 10.422829 -1.158092
		CHANNELS 6 Xposition Yposition Zposition Xrotation Yrotation Zrotation
		JOINT Spine1
		{
			OFFSET 0.000000 11.587624 0.000000
			CHANNELS 3 Xrotation Yrotation Zrotation
			JOINT Spine2
			{
				OFFSET 0.000000 10.579559 -0.000443
				CHANNELS 6 Xposition Yposition Zposition Xrotation Yrotation Zrotation
				JOINT Spine3
				{
					OFFSET 0.000000 10.567749 -0.000444
					CHANNELS 6 Xposition Yposition Zposition Xrotation Yrotation Zrotation
					JOINT LeftShoulder
					{
						OFFSET 3.218383 8.290512 0.000000
						CHANNELS 6 Xposition Yposition Zposition Xrotation Yrotation Zrotation
						JOINT LeftArm
						{
							OFFSET 15.038529 0.000000 0.000000
							CHANNELS 3 Xrotation Yrotation Zrotation
							JOINT LeftForeArm
							{
								OFFSET 32.129166 0.000000 0.000000
								CHANNELS 3 Xrotation Yrotation Zrotation
								JOINT LeftHand
								{
									OFFSET 26.275406 0.000000 0.000000
									CHANNELS 3 Xrotation Yrotation Zrotation
									End Site
									{
										OFFSET 26.275406 0.000000 0.000000
									}
								}
							}
						}
					}
					JOINT RightShoulder
					{
						OFFSET -3.218383 8.290512 0.000000
						CHANNELS 6 Xposition Yposition Zposition Xrotation Yrotation Zrotation
						JOINT RightArm
						{
							OFFSET -15.038529 0.000000 0.000000
							CHANNELS 3 Xrotation Yrotation Zrotation
							JOINT RightForeArm
							{
								OFFSET -32.129166 0.000000 0.000000
								CHANNELS 3 Xrotation Yrotation Zrotation
								JOINT RightHand
								{
									OFFSET -26.275406 0.000000 0.000000
									CHANNELS 3 Xrotation Yrotation Zrotation
									End Site
									{
										OFFSET -26.275406 0.000000 0.000000
									}
								}
							}
						}
					}
					JOINT Neck
					{
						OFFSET 0.000000 14.789474 0.000000
						CHANNELS 6 Xposition Yposition Zposition Xrotation Yrotation Zrotation
						JOINT Head
						{
							OFFSET 0.000000 9.838806 0.000953
							CHANNELS 6 Xposition Yposition Zposition Xrotation Yrotation Zrotation
							End Site
							{
								OFFSET 0.000000 9.838806 0.000000
							}
						}
					}
				}
			}
		}
	}
}
MOTION
Frames: 8
Frame Time: 0.016667
0.000000 97.420761 0.000000 -0.000000 0.000000 -0.000000 -8.571318 0.002251 -0.000250 -0.000000 0.000000 -0.000000 0.000000 -44.326080 -0.000105 -0.000000 0.000000 -0.000000 0.000000 -43.324329 -0.000176 -0.000000 0.000000 -0.000000 0.000000 -7.938133 18.050686 -0.000000 0.000000 -0.000000 8.571318 -0.000084 0.000009 -0.000000 0.000000 -0.000000 0.000000 -44.326080 -0.000105 -0.000000 0.000000 -0.000000 0.000000 -43.324329 -0.000176 -0.000000 0.000000 -0.000000 0.000000 -7.938133 18.050686 -0.000000 0.000000 -0.000000 0.000000 10.422829 -1.158092 -0.000000 0.000000 -0.000000 -0.000000 0.000000 -0.000000 0.000000 10.579559 -0.000443 -0.000000 0.000000 -0.000000 0.000000 10.567749 -0.000444 -0.000000 0.000000 -0.000000 3.218383 8.290512 0.000000 -0.000000 0.000000 -0.000000 -0.000000 0.000000 -0.000000 -0.000000 0.000000 -0.000000 -0.000000 0.000000 -0.000000 -3.218383 8.290512 0.000000 -0.000000 0.000000 -0.000000 -0.000000 0.000000 -0.000000 -0.000000 0.000000 -0.000000 -0.000000 0.000000 -0.000000 0.000000 14.789474 0.000000 -0.000000 0.000000 -0.000000 0.000000 9.838806 0.000953 -0.000000 0.000000 -0.000000 
-47.849068 17.029022 139.688034 -56.491583 54.583815 52.953996 -8.571332 0.002261 -0.000249 -99.508056 -8.505566 3.124936 0.000007 -44.326077 -0.000102 93.298055 -0.542463 0.948707 0.000007 -43.324329 -0.000181 18.716440 1.988429 8.790523 -0.000011 -7.938131 18.050686 -0.000000 -0.000000 -0.000000 8.571318 -0.000082 0.000009 -102.674416 -2.279517 5.181290 -0.000006 -44.326077 -0.000104 100.043946 -0.586427 -1.166703 -0.000001 -43.324322 -0.000181 0.331483 -10.056823 -16.280644 -0.000003 -7.938137 18.050678 -0.000001 -0.000003 -0.000001 -0.000001 10.422834 -1.158091 10.803046 -1.548528 0.517080 -0.913492 -0.716039 0.122284 -0.000008 10.579565 -0.000442 4.792836 -0.716190 0.121493 -0.000006 10.567756 -0.000434 9.317093 -0.526833 0.139224 3.218387 8.290516 0.000008 2.677062 5.027193 -6.413454 -41.919781 -23.950185 -56.559881 -76.993294 -21.800980 -116.554050 5.378805 -42.053885 21.937278 -3.218379 8.290513 0.000004 1.107385 -1.512134 3.379089 -51.367268 12.251751 66.270361 -80.422438 62.512173 109.308865 6.294289 40.002294 -30.449813 0.000010 14.789458 0.000006 9.420460 -7.840088 -0.094663 0.000026 9.838826 0.000936 -18.290012 -14.098360 -3.675451 
-48.554180 15.397034 142.487167 -59.539592 54.343119 55.896441 -8.571308 0.002249 -0.000247 -100.634798 -8.615978 2.954460 -0.000014 -44.326073 -0.000097 94.589944 -0.374152 0.921786 -0.000008 -43.324333 -0.000187 19.603107 1.906464 9.018966 -0.000010 -7.938133 18.050686 -0.000001 0.000001 -0.000001 8.571323 -0.000076 0.000012 -103.562627 -2.230172 5.139934 -0.000003 -44.326080 -0.000098 101.760864 -0.424977 -1.118635 -0.000006 -43.324329 -0.000177 0.191058 -10.291608 -16.667885 -0.000004 -7.938143 18.050682 -0.000000 -0.000003 -0.000000 0.000007 10.422828 -1.158092 11.298743 -1.569815 0.477534 -0.807224 -0.723176 0.101011 0.000015 10.579563 -0.000449 5.013207 -0.723185 0.100931 0.000017 10.567749 -0.000431 9.596668 -0.533364 0.124605 3.218405 8.290513 0.000003 2.832099 5.080098 -6.579159 -42.558878 -23.792272 -57.580523 -78.172683 -20.891665 -118.661327 5.798244 -42.825467 22.704640 -3.218357 8.290518 -0.000001 1.242254 -1.587064 3.457746 -52.013642 11.730564 67.261948 -83.786723 61.902414 113.383333 6.744812 40.672762 -31.363867 0.000017 14.789481 0.000005 9.675229 -8.017234 -0.070969 0.000021 9.838810 0.000956 -18.551171 -14.409029 -3.777088 
-48.398731 15.365273 142.485703 -60.203029 53.835179 56.508675 -8.571319 0.002253 -0.000243 -100.097515 -8.579474 2.895589 -0.000014 -44.326077 -0.000111 94.306150 -0.256635 0.882319 -0.000003 -43.324329 -0.000179 20.010936 1.794087 9.071235 -0.000004 -7.938132 18.050682 -0.000000 -0.000001 0.000001 8.571313 -0.000082 0.000012 -102.776875 -2.093161 5.081726 0.000015 -44.326080 -0.000103 101.644669 -0.290905 -1.069065 0.000003 -43.324333 -0.000176 0.123882 -10.317298 -16.718987 -0.000005 -7.938139 18.050686 0.000001 -0.000000 -0.000000 -0.000011 10.422832 -1.158087 11.547738 -1.559342 0.430210 -0.696390 -0.715434 0.080095 0.000005 10.579553 -0.000433 5.124040 -0.715442 0.080021 0.000004 10.567744 -0.000440 9.679818 -0.529030 0.108334 3.218370 8.290510 0.000001 2.887485 5.034088 -6.607662 -42.253012 -23.624303 -57.362490 -78.231122 -20.966027 -118.954520 5.852977 -42.864351 22.855384 -3.218390 8.290511 0.000003 1.314030 -1.620644 3.487674 -51.731549 11.577082 67.052739 -84.021217 61.837773 113.851050 6.778263 40.661646 -31.486609 -0.000010 14.789473 0.000003 9.718415 -8.032000 -0.053623 0.000008 9.838808 0.000950 -18.470479 -14.444744 -3.747843 
-48.391602 15.317947 142.472275 -60.686682 53.471324 56.939001 -8.571316 0.002252 -0.000240 -99.676174 -8.556208 2.861631 0.000014 -44.326073 -0.000106 94.150196 -0.201810 0.850559 0.000011 -43.324333 -0.000183 20.270314 1.732791 9.112177 0.000007 -7.938130 18.050682 0.000001 -0.000000 0.000000 8.571314 -0.000088 0.000017 -102.111089 -1.980540 5.035522 0.000015 -44.326077 -0.000099 101.387533 -0.232946 -1.019403 -0.000010 -43.324329 -0.000178 0.134517 -10.333409 -16.761337 0.000004 -7.938124 18.050686 -0.000000 0.000003 0.000001 -0.000009 10.422830 -1.158079 11.766538 -1.544319 0.388446 -0.598985 -0.706023 0.062053 -0.000010 10.579561 -0.000443 5.221443 -0.706031 0.061983 0.000010 10.567752 -0.000445 9.752895 -0.523245 0.094113 3.218404 8.290511 -0.000002 2.879603 4.981576 -6.626956 -42.019361 -23.437951 -57.145348 -78.243280 -20.991113 -119.165614 5.895163 -42.995078 22.994786 -3.218364 8.290508 -0.000005 1.325451 -1.638378 3.550032 -51.484487 11.422274 66.881841 -84.284726 61.776862 114.261818 6.829108 40.712610 -31.632635 0.000016 14.789476 -0.000002 9.726528 -8.039602 -0.025528 0.000007 9.838809 0.000962 -18.453803 -14.471284 -3.699501 
-48.475952 15.258820 142.451035 -61.082894 53.179692 57.278772 -8.571324 0.002250 -0.000243 -99.306511 -8.539330 2.843413 0.000004 -44.326080 -0.000098 94.065891 -0.184796 0.822154 0.000009 -43.324333 -0.000183 20.449183 1.701757 9.146798 0.000004 -7.938121 18.050684 0.000001 0.000000 -0.000000 8.571325 -0.000079 0.000012 -101.490034 -1.878322 4.996466 0.000012 -44.326084 -0.000098 101.032445 -0.220495 -0.968721 -0.000007 -43.324326 -0.000181 0.194432 -10.341804 -16.799544 -0.000019 -7.938135 18.050690 -0.000001 -0.000000 -0.000001 -0.000011 10.422827 -1.158088 11.976970 -1.526003 0.347675 -0.505297 -0.695185 0.044715 -0.000026 10.579556 -0.000449 5.315135 -0.695193 0.044646 0.000002 10.567749 -0.000445 9.823176 -0.516341 0.080322 3.218373 8.290515 -0.000006 2.832551 4.922217 -6.642394 -41.819107 -23.224291 -56.917640 -78.217612 -20.974548 -119.334825 5.927987 -43.189632 23.138287 -3.218383 8.290508 -0.000003 1.299531 -1.646455 3.636743 -51.248528 11.254320 66.727875 -84.567120 61.700855 114.648892 6.894254 40.807505 -31.800609 -0.000020 14.789479 -0.000004 9.714376 -8.041955 0.009889 -0.000011 9.838803 0.000956 -18.473889 -14.491052 -3.637609 
-48.554451 15.206085 142.432404 -61.419793 52.920435 57.568482 -8.571301 0.002250 -0.000248 -98.978969 -8.521109 2.835358 0.000020 -44.326080 -0.000098 93.993443 -0.177291 0.798984 -0.000019 -43.324333 -0.000180 20.601447 1.682046 9.173010 -0.000012 -7.938126 18.050688 0.000001 0.000001 -0.000001 8.571336 -0.000081 0.000012 -100.947518 -1.789794 4.969689 -0.000014 -44.326084 -0.000103 100.718673 -0.215060 -0.930070 0.000001 -43.324329 -0.000174 0.252324 -10.337870 -16.830416 0.000009 -7.938123 18.050671 0.000001 0.000003 0.000002 0.000029 10.422825 -1.158085 12.163678 -1.510688 0.309438 -0.422168 -0.685800 0.028375 -0.000010 10.579566 -0.000445 5.398265 -0.685804 0.028303 -0.000001 10.567740 -0.000450 9.885533 -0.510449 0.067383 3.218383 8.290509 -0.000009 2.790644 4.868058 -6.659849 -41.639241 -23.003094 -56.709705 -78.152370 -20.903760 -119.479543 5.941246 -43.368641 23.284578 -3.218388 8.290518 -0.000006 1.273054 -1.650320 3.720782 -51.043414 11.083286 66.596141 -84.770755 61.571396 114.959460 6.956942 40.906939 -31.953073 0.000005 14.789467 -0.000004 9.707479 -8.038718 0.038905 0.000008 9.838811 0.000953 -18.483950 -14.498045 -3.584108 
-48.599762 15.160851 142.418091 -61.750333 52.654584 57.861135 -8.571296 0.002258 -0.000247 -98.656694 -8.494506 2.831281 0.000020 -44.326080 -0.000103 93.904562 -0.172046 0.776974 0.000031 -43.324337 -0.000183 20.760459 1.667668 9.192048 0.000009 -7.938136 18.050686 0.000000 -0.000001 -0.000001 8.571338 -0.000073 0.000014 -100.438567 -1.705088 4.951316 0.000004 -44.326084 -0.000106 100.464665 -0.204800 -0.907945 -0.000001 -43.324329 -0.000182 0.294799 -10.316095 -16.853698 -0.000003 -7.938128 18.050686 -0.000000 0.000002 -0.000001 0.000005 10.422832 -1.158084 12.341296 -1.500911 0.269791 -0.343081 -0.678723 0.011069 0.000005 10.579556 -0.000440 5.477348 -0.678722 0.010999 -0.000002 10.567748 -0.000452 9.944864 -0.506332 0.053890 3.218386 8.290505 -0.000004 2.766929 4.816684 -6.682128 -41.460433 -22.748853 -56.509061 -78.026578 -20.749476 -119.624698 5.925259 -43.515070 23.452759 -3.218385 8.290512 0.000002 1.256436 -1.653675 3.801864 -50.853791 10.888932 66.473641 -84.892537 61.356341 115.217368 7.022161 41.013770 -32.097077 0.000007 14.789481 -0.000005 9.714124 -8.028114 0.058986 -0.000013 9.838809 0.000958 -18.468427 -14.488199 -3.541846 
